<?xml version="1.0" encoding="utf-8"?>
<!-- Generator: Adobe Illustrator 24.2.3, SVG Export Plug-In . SVG Version: 6.00 Build 0)  -->
<svg version="1.1" id="Capa_1" xmlns="http://www.w3.org/2000/svg" xmlns:xlink="http://www.w3.org/1999/xlink" x="0px" y="0px"
	 viewBox="0 0 50 50" style="enable-background:new 0 0 50 50;" xml:space="preserve">
<style type="text/css">
	.st0{fill:#0C0C0C;}
	.st1{fill:#227184;}
	.st2{fill:#FFFFFF;}
	.st3{fill:#E63432;}
	.st4{fill:#6D6D6D;}
	.st5{fill:none;stroke:#FFFFFF;stroke-width:1.0676;stroke-miterlimit:10;}
</style>
<g>
	<path class="st0" d="M36.9,45.25H0V6c0-0.69,0.56-1.25,1.25-1.25h34.32c0.69,0,1.25,0.56,1.25,1.25v10.41H11.97v25.47h23.68
		c0.69,0,1.25,0.56,1.25,1.25V45.25z"/>
	<path class="st0" d="M31.5,16.43H16.78v3.04c0,0.69,0.56,1.25,1.25,1.25h12.22c0.69,0,1.25-0.56,1.25-1.25V16.43z"/>
	<path class="st1" d="M36.82,16.41V6c0-0.69-0.56-1.25-1.25-1.25l0,0c-0.69,0-1.25,0.56-1.25,1.25v10.41H36.82z"/>
	<path class="st1" d="M31.5,19.48v-3.07H29v4.32h1.25C30.94,20.73,31.5,20.17,31.5,19.48z"/>
	<rect x="9.46" y="16.41" class="st1" width="2.51" height="25.47"/>
	<path class="st1" d="M34.32,45.25h2.58v-2.12c0-0.69-0.56-1.25-1.25-1.25h-1.33V45.25z"/>
	<g>
		<path class="st2" d="M36.25,32.49c-0.46-0.48-1.11-0.71-1.77-0.71l-0.75,0v0c0.35-0.8-0.24-1.69-1.11-1.69h-14
			c-0.87,0-1.46,0.89-1.11,1.69l4.42,10.1h7.37l0.74-1.69h1.52c1.75,0,3.34-1.04,4.04-2.65l1.09-2.5
			C37.08,34.19,36.91,33.19,36.25,32.49z M35.35,34.45l-1.09,2.49c-0.47,1.07-1.53,1.76-2.69,1.76h-0.88l2.39-5.46h1.49
			c0.3,0,0.56,0.14,0.72,0.39C35.45,33.89,35.47,34.18,35.35,34.45z"/>
		<polygon class="st3" points="28.23,40.11 31.89,31.85 25.62,31.85 25.62,40.11 		"/>
	</g>
	<g>
		<g>
			<path class="st4" d="M6.78,31.09H0v-1h6.78c0.28,0,0.5,0.22,0.5,0.5l0,0C7.28,30.86,7.05,31.09,6.78,31.09z"/>
		</g>
		<g>
			<path class="st4" d="M6.78,34.09H0v-1h6.78c0.28,0,0.5,0.22,0.5,0.5l0,0C7.28,33.87,7.05,34.09,6.78,34.09z"/>
		</g>
		<g>
			<path class="st4" d="M6.78,37.09H0v-1h6.78c0.28,0,0.5,0.22,0.5,0.5l0,0C7.28,36.87,7.05,37.09,6.78,37.09z"/>
		</g>
	</g>
	<g>
		<circle class="st4" cx="2.5" cy="10.58" r="0.5"/>
		<circle class="st4" cx="5.51" cy="10.58" r="0.5"/>
		<circle class="st4" cx="8.51" cy="10.58" r="0.5"/>
		<circle class="st4" cx="11.52" cy="10.58" r="0.5"/>
	</g>
	<g>
		<path class="st4" d="M23.55,19.08h-6.78v-1h6.78c0.28,0,0.5,0.22,0.5,0.5v0C24.05,18.86,23.83,19.08,23.55,19.08z"/>
	</g>
	<g>
		<path class="st0" d="M35.77,19.07H29v-1h6.78c0.28,0,0.5,0.22,0.5,0.5v0C36.27,18.84,36.05,19.07,35.77,19.07z"/>
	</g>
	<path class="st0" d="M49.07,17.51H33.51v2.15h15.56c0.52,0,0.93-0.42,0.93-0.93v-0.28C50,17.93,49.58,17.51,49.07,17.51z"/>
	<g>
		<circle class="st4" cx="48.39" cy="18.58" r="0.5"/>
	</g>
	<g>
		<path class="st5" d="M26.81,20.73c0,1.56-1.6,1.56-1.6,3.12c0,1.56,1.6,1.56,1.6,3.12s-1.6,1.56-1.6,3.12"/>
	</g>
	<g>
		<path class="st5" d="M23.07,20.73c0,1.56-1.6,1.56-1.6,3.12c0,1.56,1.6,1.56,1.6,3.12s-1.6,1.56-1.6,3.12"/>
	</g>
</g>
</svg>
