<?xml version="1.0" encoding="utf-8"?>
<!-- Generator: Adobe Illustrator 24.2.3, SVG Export Plug-In . SVG Version: 6.00 Build 0)  -->
<svg version="1.1" id="Capa_1" xmlns="http://www.w3.org/2000/svg" xmlns:xlink="http://www.w3.org/1999/xlink" x="0px" y="0px"
	 viewBox="0 0 50 50" style="enable-background:new 0 0 50 50;" xml:space="preserve">
<style type="text/css">
	.st0{fill:#0C0C0C;}
	.st1{fill:#6D6D6D;}
	.st2{fill:#FFFFFF;}
	.st3{fill:#E63432;}
	.st4{fill:#2DB6C4;}
</style>
<g>
	<path class="st0" d="M44.25,50H5.75v-2.19c0-0.73,0.59-1.32,1.32-1.32h35.88c0.72,0,1.3,0.58,1.3,1.3V50z"/>
	<g>
		<path class="st1" d="M41.04,48.77H5.75v-1.04h35.29c0.29,0,0.52,0.23,0.52,0.52v0C41.56,48.53,41.33,48.77,41.04,48.77z"/>
	</g>
	<polygon class="st0" points="25,38.82 14.92,46.49 25,46.49 35.08,46.49 	"/>
	<path class="st0" d="M25,43.6L25,43.6c-7.3,0-13.9-4.35-16.77-11.07l-2.48-5.8h38.5l-2.48,5.8C38.9,39.25,32.3,43.6,25,43.6z"/>
	<g>
		<path class="st2" d="M38.99,7.04c1.61-1.61,1.61-4.22,0-5.83c-1.61-1.61-4.22-1.61-5.83,0c-1.3,1.3-1.53,3.24-0.73,4.79
			L21.58,18.62L34.2,7.77C35.75,8.57,37.69,8.34,38.99,7.04z"/>
		<path class="st3" d="M38.11,2.08l-4.08,4.08c1.13,1.13,2.95,1.13,4.08,0C39.24,5.04,39.24,3.21,38.11,2.08z"/>
	</g>
	<path class="st2" d="M25,7.49c-5.32,0-9.62,4.31-9.62,9.62c-5.32,0-9.62,4.31-9.62,9.62l16.62,0c0.91,0,1.61,0.79,1.5,1.69
		l-0.16,1.39c-0.08,0.72,0.42,1.42,1.14,1.48c0.81,0.06,1.45-0.63,1.35-1.41l-0.18-1.44c-0.11-0.9,0.59-1.7,1.5-1.7h0
		c0.88,0,1.57,0.74,1.51,1.62l-0.35,5.21c-0.11,0.94,0.62,1.76,1.56,1.76c0.95,0,1.68-0.83,1.56-1.77l-0.38-5.19
		c-0.06-0.88,0.63-1.62,1.51-1.62l11.3,0c0-5.32-4.31-9.62-9.62-9.62C34.62,12.14,30.89,7.49,25,7.49z"/>
	<g>
		<g>
			<circle class="st4" cx="21.07" cy="19.62" r="0.52"/>
			<circle class="st4" cx="28.93" cy="19.62" r="0.52"/>
			<circle class="st4" cx="25" cy="19.62" r="0.52"/>
		</g>
		<g>
			<circle class="st4" cx="21.07" cy="13.55" r="0.52"/>
			<circle class="st4" cx="28.93" cy="13.55" r="0.52"/>
			<circle class="st4" cx="25" cy="13.55" r="0.52"/>
		</g>
		<g>
			<circle class="st4" cx="19.11" cy="16.59" r="0.52"/>
			<circle class="st4" cx="23.04" cy="16.59" r="0.52"/>
			<circle class="st4" cx="26.96" cy="16.59" r="0.52"/>
			<circle class="st4" cx="30.89" cy="16.59" r="0.52"/>
		</g>
		<g>
			<circle class="st4" cx="19.11" cy="22.66" r="0.52"/>
			<circle class="st4" cx="23.04" cy="22.66" r="0.52"/>
			<circle class="st4" cx="26.96" cy="22.66" r="0.52"/>
			<circle class="st4" cx="30.89" cy="22.66" r="0.52"/>
		</g>
	</g>
</g>
</svg>
