<?xml version="1.0" encoding="utf-8"?>
<!-- Generator: Adobe Illustrator 24.2.3, SVG Export Plug-In . SVG Version: 6.00 Build 0)  -->
<svg version="1.1" id="Capa_1" xmlns="http://www.w3.org/2000/svg" xmlns:xlink="http://www.w3.org/1999/xlink" x="0px" y="0px"
	 viewBox="0 0 50 50" style="enable-background:new 0 0 50 50;" xml:space="preserve">
<style type="text/css">
	.st0{fill:#0C0C0C;}
	.st1{fill:#6D6D6D;}
	.st2{fill:#FFFFFF;}
	.st3{fill:#E63432;}
</style>
<g>
	<path class="st0" d="M43.97,49.95H5.58v-2.18c0-0.73,0.59-1.32,1.32-1.32h35.78c0.71,0,1.29,0.58,1.29,1.29V49.95z"/>
	<g>
		<path class="st1" d="M40.77,48.72H5.58v-1.04h35.19c0.29,0,0.52,0.23,0.52,0.52l0,0C41.29,48.49,41.06,48.72,40.77,48.72z"/>
	</g>
	<polygon class="st0" points="24.77,38.8 14.72,46.45 24.77,46.45 34.83,46.45 	"/>
	<path class="st0" d="M24.77,43.59L24.77,43.59c-3.1,0-5.81-2.06-6.65-5.04l-6.57-28.17h26.43l-6.57,28.17
		C30.59,41.53,27.87,43.59,24.77,43.59z"/>
	<g>
		<g>
			<path class="st1" d="M24.2,41.35V19.91h1.15v21.43c0,0.32-0.26,0.58-0.58,0.58h0C24.46,41.92,24.2,41.67,24.2,41.35z"/>
		</g>
		<g>
			<path class="st1" d="M21.46,41.45l-4.84-21.53h1.14l4.84,21.33c0.06,0.31-0.15,0.61-0.47,0.67h0
				C21.81,41.97,21.51,41.76,21.46,41.45z"/>
		</g>
		<g>
			<path class="st1" d="M28.09,41.45l4.84-21.53H31.8l-4.84,21.33c-0.06,0.31,0.15,0.61,0.47,0.67l0,0
				C27.74,41.97,28.04,41.76,28.09,41.45z"/>
		</g>
	</g>
	<path class="st2" d="M34.63,7.03h-0.81c0.54-1.5,0.22-3.25-0.98-4.45c-1.32-1.32-3.29-1.57-4.88-0.8
		c-0.65-1.09-1.83-1.84-3.19-1.84c-1.36,0-2.54,0.74-3.19,1.84c-1.59-0.78-3.56-0.52-4.88,0.8c-1.2,1.2-1.52,2.94-0.98,4.45h-0.81
		c-1.85,0-3.36,1.5-3.36,3.36h7.95l0,0c0.9,0,1.6,0.79,1.5,1.69l-0.16,1.39c-0.08,0.72,0.42,1.42,1.14,1.47
		c0.81,0.06,1.45-0.63,1.35-1.41l-0.18-1.44c-0.11-0.9,0.59-1.7,1.5-1.7c0.87,0,1.57,0.74,1.51,1.61l-0.35,5.2
		c-0.11,0.93,0.62,1.75,1.56,1.75c0.95,0,1.68-0.83,1.56-1.77L28.54,12c-0.06-0.87,0.63-1.62,1.51-1.62h7.95
		C37.99,8.53,36.49,7.03,34.63,7.03z"/>
	<path class="st3" d="M27.77,3.53l4.12,4.12c1.14-1.14,1.14-2.99,0-4.12C30.75,2.39,28.91,2.39,27.77,3.53z"/>
</g>
</svg>
