<?xml version="1.0" encoding="utf-8"?>
<!-- Generator: Adobe Illustrator 24.2.3, SVG Export Plug-In . SVG Version: 6.00 Build 0)  -->
<svg version="1.1" id="Capa_1" xmlns="http://www.w3.org/2000/svg" xmlns:xlink="http://www.w3.org/1999/xlink" x="0px" y="0px"
	 viewBox="0 0 50 50" style="enable-background:new 0 0 50 50;" xml:space="preserve">
<style type="text/css">
	.st0{fill:#0C0C0C;}
	.st1{fill:none;stroke:#FFFFFF;stroke-width:1.1071;stroke-miterlimit:10;}
	.st2{fill:#6D6D6D;}
	.st3{fill:#FFFFFF;}
	.st4{fill:#E63432;}
</style>
<g>
	<path class="st0" d="M43.54,49.95H5.17v-2.18c0-0.73,0.59-1.32,1.32-1.32h35.77c0.71,0,1.29,0.58,1.29,1.29V49.95z"/>
	<g>
		<path class="st1" d="M26.8-0.05c0,2.07-2.16,2.07-2.16,4.14c0,2.07,2.16,2.07,2.16,4.14c0,2.07-2.16,2.07-2.16,4.15
			s2.16,2.07,2.16,4.15"/>
	</g>
	<g>
		<path class="st1" d="M22.92-0.05c0,2.07-2.16,2.07-2.16,4.14c0,2.07,2.16,2.07,2.16,4.14c0,2.07-2.16,2.07-2.16,4.15
			s2.16,2.07,2.16,4.15"/>
	</g>
	<path class="st0" d="M42.67,21.98c-0.7-0.76-1.69-1.19-2.72-1.19h-2.91l0.36-4.26H10.16l1.62,18.89
		c0.53,6.24,5.75,11.02,12.01,11.02c5.88,0,10.83-4.22,11.86-9.9c4.2-1.04,7.38-4.61,7.77-9.13l0.22-2.61
		C43.72,23.76,43.37,22.74,42.67,21.98z M40.75,27.17c-0.26,3-2.18,5.45-4.82,6.48l0.87-10.21h3.14c0.29,0,0.56,0.12,0.76,0.33
		c0.2,0.22,0.29,0.49,0.27,0.78L40.75,27.17z"/>
	<g>
		<path class="st2" d="M40.35,48.72H5.17v-1.04h35.18c0.29,0,0.52,0.23,0.52,0.52v0C40.86,48.49,40.63,48.72,40.35,48.72z"/>
	</g>
	<g>
		<path class="st3" d="M31.21,33.66h-4.82c-0.57,0-1.04-0.46-1.04-1.04v-5.86l3.45-3.32l3.45,3.32v5.86
			C32.25,33.19,31.78,33.66,31.21,33.66z"/>
		<path class="st4" d="M28.8,24.82v7.97h1.38c0.57,0,1.04-0.46,1.04-1.04V27.4L28.8,24.82z"/>
	</g>
	<line class="st1" x1="28.8" y1="24.17" x2="28.8" y2="16.52"/>
</g>
</svg>
