<?xml version="1.0" encoding="utf-8"?>
<!-- Generator: Adobe Illustrator 24.2.3, SVG Export Plug-In . SVG Version: 6.00 Build 0)  -->
<svg version="1.1" id="Capa_1" xmlns="http://www.w3.org/2000/svg" xmlns:xlink="http://www.w3.org/1999/xlink" x="0px" y="0px"
	 viewBox="0 0 50 50" style="enable-background:new 0 0 50 50;" xml:space="preserve">
<style type="text/css">
	.st0{fill:#0C0C0C;}
	.st1{fill:#6D6D6D;}
	.st2{fill:#227184;}
	.st3{fill:#FFFFFF;}
	.st4{fill:#E63432;}
</style>
<g>
	<polygon class="st0" points="25,15.7 18.32,45.32 31.68,45.32 	"/>
	<g>
		<path class="st0" d="M50,37.73H0v-2.1c0-0.7,0.57-1.27,1.27-1.27h47.49c0.69,0,1.24,0.56,1.24,1.24V37.73z"/>
		<g>
			<path class="st1" d="M47.05,36.54H0v-1h47.05c0.28,0,0.5,0.22,0.5,0.5v0C47.55,36.32,47.33,36.54,47.05,36.54z"/>
		</g>
	</g>
	<g>
		<path class="st2" d="M8.03,14.19V12.5c0-0.02,0-0.04,0-0.06c-0.04-2.22-3.43-2.12-3.43,0.1v1.65v11.4v8.77h40.8V17.37
			c0-1.76-1.43-3.18-3.18-3.18H8.03z"/>
		<g>
			<rect x="8.03" y="26.64" class="st0" width="37.37" height="4.04"/>
			<rect x="8.03" y="18.46" class="st0" width="37.37" height="4.04"/>
		</g>
		<g>
			<path class="st3" d="M38.49,9.74c-2,0-3.69,1.34-4.22,3.16c-0.05,0.18-0.29,0.18-0.35,0c-0.51-1.76-2.11-3.05-4.01-3.14
				c0.04-0.23,0.07-0.46,0.07-0.69c0-2.42-1.97-4.39-4.39-4.39c-2.42,0-4.39,1.97-4.39,4.39c0,0.24,0.03,0.48,0.07,0.71
				c-0.12-0.01-0.23-0.03-0.34-0.03c-2,0-3.69,1.34-4.22,3.17c-0.05,0.18-0.29,0.18-0.35,0c-0.53-1.83-2.22-3.17-4.22-3.17
				c-1.91,0-3.51,1.22-4.12,2.92v1.53h6.86h1.65h4.3c0.68,0.19,1.15,0.85,1.07,1.59l-0.16,1.36c-0.08,0.67,0.36,1.34,1.03,1.43
				c0.83,0.12,1.5-0.58,1.4-1.37l-0.18-1.41c-0.09-0.74,0.38-1.41,1.07-1.6h0.8c0.65,0.19,1.12,0.8,1.07,1.52l-0.34,5.09
				c-0.11,0.91,0.61,1.72,1.53,1.72c0.93,0,1.64-0.81,1.53-1.73l-0.37-5.07c-0.05-0.72,0.42-1.34,1.07-1.52h3.75h1.65h6.47
				c0.22,0,0.44,0.02,0.64,0.07c0-0.04,0.01-0.08,0.01-0.13C42.87,11.7,40.91,9.74,38.49,9.74z"/>
			<path class="st4" d="M27.79,6.88c-1.22-1.22-3.21-1.22-4.43,0l4.43,4.43C29.01,10.09,29.01,8.1,27.79,6.88z"/>
		</g>
	</g>
</g>
</svg>
